# xmcd
#
# Track frame offsets:
# 150
# 12622
# 25677
# 37380
# 54849
# 72501
# 87228
# 108202
# 133444
# 144782
# 162214
# 185905
# 206967
# 224531
# 255511
# 279307
# 298265
#
# Disc length: 4221 seconds
#
# Revision: 1
# Processed by: cddbd v1.5.2PL0 Copyright (c) Steve Scherf et al.
# Submitted via: inCDius 2.0b9
#
DISCID=0f107b11
DTITLE=Rod Clements - One Track Mind
DYEAR=1900
DGENRE=
TTITLE0=Hard Travelling
TTITLE1=The Train That Carried My Girl From Town
TTITLE2=Bourgeois Blues
TTITLE3=Train In G Major
TTITLE4=Ain't No More Cane
TTITLE5=Down In The Flood
TTITLE6=Road To Kingdom Come
TTITLE7=Evil Hearted Woman
TTITLE8=Meet Me On The Corner
TTITLE9=Leather Launderette
TTITLE10=No Turning Back (Studio Version)
TTITLE11=Sneaky Suspension
TTITLE12=Piston Broke Again
TTITLE13=Long Vehicle
TTITLE14=No Turning Back (Home Version)
TTITLE15=A Dream Within A Dream
TTITLE16=Blues For A Dying Season
EXTD=
EXTT0=
EXTT1=
EXTT2=
EXTT3=
EXTT4=
EXTT5=
EXTT6=
EXTT7=
EXTT8=
EXTT9=
EXTT10=
EXTT11=
EXTT12=
EXTT13=
EXTT14=
EXTT15=
EXTT16=
PLAYORDER=
